PathFileType   4   (X/Y/Z)
DataRate	CameraRate	NumFrames	NumMarkers	Units	OrigDataRate	OrigDataStartFrame	OrigNumFrames
120.0	120.0	12	37	mm	120.0	59	116
Frame#	Time	midhip	hip_r	hip_l	knee_r	knee_l	ankle_r	ankle_l	midasis	asis_r	asis_l	psis_r	psis_l	epicondLat_r	epicondLat_l	epicondMed_r	epicondMed_l	malleolusLat_r	malleolusLat_l	malleolusMedv_r	malleolusMedv_l	neck	subclavicle_r	subclavicle_l	sternalnotch	xyphoidprocess	thighwand_r	thighwand_l	upperleg1_r	upperleg1_l	upperleg2_r	upperleg2_l	shankwand_r	shankwand_l	lowerleg1_r	lowerleg1_l	toe_r	toe_l
 	 	X1	Y1	Z1	X2	Y2	Z2	X3	Y3	Z3	X4	Y4	Z4	X5	Y5	Z5	X6	Y6	Z6	X7	Y7	Z7	X8	Y8	Z8	X9	Y9	Z9	X10	Y10	Z10	X11	Y11	Z11	X12	Y12	Z12	X13	Y13	Z13	X14	Y14	Z14	X15	Y15	Z15	X16	Y16	Z16	X17	Y17	Z17	X18	Y18	Z18	X19	Y19	Z19	X20	Y20	Z20	X21	Y21	Z21	X22	Y22	Z22	X23	Y23	Z23	X24	Y24	Z24	X25	Y25	Z25	X26	Y26	Z26	X27	Y27	Z27	X28	Y28	Z28	X29	Y29	Z29	X30	Y30	Z30	X31	Y31	Z31	X32	Y32	Z32	X33	Y33	Z33	X34	Y34	Z34	X35	Y35	Z35	X36	Y36	Z36	X37	Y37	Z37

	59	0.61667	1099.160	795.728	-277.488	1099.036	778.563	-208.434	1065.732	777.830	-356.869	1259.051	433.955	-224.141	995.745	401.500	-391.212	1304.530	66.662	-235.696	755.215	134.115	-363.924	1170.634	852.815	-299.704	1192.595	853.243	-184.181	1148.673	852.387	-415.228	986.775	911.063	-224.372	973.631	906.715	-277.114	1275.504	439.070	-168.759	1002.321	405.523	-448.698	1250.422	431.854	-268.141	1031.549	403.400	-329.280	1295.143	64.278	-196.886	739.544	144.612	-399.197	1316.905	72.841	-269.004	768.550	139.288	-340.370	1067.459	1352.521	-283.244	1196.686	1292.835	-244.039	1188.127	1289.677	-350.189	1188.826	1288.096	-296.316	1229.653	1219.111	-301.273	1334.106	626.524	-269.087	1066.341	544.515	-524.145	1275.201	647.737	-191.104	1014.432	591.742	-458.932	1303.775	565.305	-194.315	1014.347	504.392	-455.040	1286.301	138.924	-125.954	908.065	165.498	-379.691	1286.901	147.777	-169.318	872.764	192.823	-381.545	1406.225	42.532	-210.045	810.233	45.916	-380.486
	60	0.62500	1110.498	796.892	-276.214	1110.213	779.886	-206.414	1077.325	778.636	-354.939	1269.166	434.664	-222.500	1012.044	401.138	-393.835	1305.335	66.434	-235.596	766.818	139.536	-366.718	1181.789	854.160	-297.683	1203.391	854.975	-182.292	1160.187	853.346	-413.075	997.567	912.016	-223.534	984.333	907.273	-276.356	1284.904	439.318	-166.870	1018.699	405.904	-451.254	1260.387	433.386	-266.688	1050.408	401.033	-334.132	1296.069	64.143	-196.752	750.718	151.023	-401.487	1317.377	71.975	-269.123	780.587	144.425	-343.115	1077.873	1353.779	-281.831	1207.683	1294.326	-242.763	1198.819	1290.767	-349.110	1199.417	1289.282	-294.885	1240.632	1220.463	-299.943	1345.431	627.731	-265.070	1081.234	545.900	-525.727	1286.141	648.325	-187.723	1028.919	591.420	-459.961	1313.920	565.934	-191.168	1030.662	504.198	-457.808	1289.487	138.142	-125.498	919.848	167.128	-384.887	1289.957	147.089	-169.221	885.806	195.009	-386.581	1407.133	41.275	-209.627	813.912	46.784	-380.741
	61	0.63333	1121.346	797.856	-275.349	1121.221	781.288	-204.446	1088.817	779.579	-353.073	1278.524	435.195	-220.718	1029.036	400.916	-396.078	1305.864	66.292	-235.436	779.575	144.729	-369.514	1192.813	855.624	-295.653	1214.008	856.778	-180.368	1171.617	854.470	-410.938	1008.197	913.036	-222.894	994.860	907.928	-275.798	1293.399	439.327	-164.811	1035.564	406.401	-453.447	1267.596	435.455	-266.959	1070.750	400.199	-337.939	1296.654	64.059	-196.575	763.162	157.155	-403.810	1316.279	72.565	-269.341	793.585	149.261	-346.014	1087.977	1354.780	-280.084	1218.238	1296.114	-241.310	1208.743	1291.612	-347.619	1209.947	1290.574	-293.473	1251.104	1221.879	-298.082	1356.658	628.435	-260.615	1095.989	547.363	-527.137	1296.271	648.706	-183.760	1043.302	591.283	-461.387	1322.470	565.189	-188.047	1047.427	504.308	-460.275	1292.067	137.378	-124.935	932.574	168.852	-389.703	1291.525	146.404	-167.991	899.464	197.276	-390.927	1407.790	40.358	-209.092	818.357	48.047	-380.919
	62	0.64167	1131.443	798.355	-274.477	1132.009	782.736	-202.587	1100.161	780.644	-351.329	1287.076	435.590	-218.851	1046.654	400.840	-397.871	1306.195	66.208	-235.246	793.345	149.698	-372.170	1203.676	857.159	-293.665	1224.412	858.595	-178.460	1182.939	855.723	-408.869	1018.642	914.123	-222.428	1005.208	908.693	-275.409	1300.968	439.162	-162.652	1052.870	406.991	-455.208	1274.128	437.894	-266.449	1089.046	399.446	-340.245	1296.981	64.007	-196.385	776.767	162.949	-406.076	1315.679	73.954	-269.061	807.086	153.398	-349.050	1097.937	1355.711	-278.400	1228.538	1297.584	-239.781	1218.705	1292.559	-346.206	1220.390	1291.960	-292.115	1261.436	1223.183	-296.401	1367.696	628.607	-255.861	1110.598	548.868	-528.279	1306.834	649.166	-179.375	1058.259	591.067	-461.652	1331.060	564.758	-184.619	1063.219	504.646	-461.364	1294.115	136.681	-124.305	946.191	170.679	-393.827	1292.928	146.561	-166.025	913.885	200.302	-394.692	1408.247	39.707	-208.515	823.728	49.783	-381.061
	63	0.65000	1141.246	798.869	-273.816	1142.550	784.213	-200.886	1111.319	781.825	-349.754	1294.849	435.900	-216.979	1064.798	400.929	-399.198	1306.402	66.146	-235.047	807.958	154.481	-374.527	1214.362	858.733	-291.769	1234.598	860.385	-176.614	1194.126	857.082	-406.924	1028.880	915.300	-222.096	1015.375	909.592	-275.143	1307.678	438.900	-160.495	1070.573	407.664	-456.516	1281.375	439.464	-265.073	1105.374	398.246	-341.900	1297.139	63.958	-196.196	791.383	168.388	-408.170	1315.881	74.342	-268.660	821.352	157.004	-351.549	1108.205	1357.100	-277.046	1239.178	1298.988	-238.513	1229.120	1293.794	-344.792	1230.714	1293.406	-290.807	1271.991	1224.516	-295.029	1378.426	628.270	-250.981	1125.120	550.393	-529.075	1316.966	648.983	-175.064	1073.079	590.710	-461.461	1339.510	564.253	-180.865	1078.178	504.430	-461.913	1295.751	136.083	-123.638	960.641	172.616	-396.992	1294.459	146.918	-165.052	929.415	203.243	-397.667	1408.530	39.253	-207.952	830.217	52.020	-381.224
	64	0.65833	1151.212	799.918	-273.331	1152.844	785.711	-199.374	1122.270	783.120	-348.375	1301.906	436.165	-215.205	1083.352	401.207	-400.087	1306.543	66.061	-234.857	823.242	159.132	-376.438	1224.871	860.328	-290.007	1244.583	862.125	-174.862	1205.159	858.531	-405.152	1038.929	916.580	-221.850	1025.401	910.641	-274.945	1313.644	438.600	-158.457	1088.629	408.429	-457.393	1288.850	439.659	-262.427	1122.586	398.171	-342.979	1297.213	63.882	-196.022	806.837	173.483	-409.977	1315.925	74.021	-268.473	836.103	161.207	-353.115	1118.811	1358.767	-275.532	1249.852	1300.833	-237.641	1239.559	1295.520	-343.175	1240.912	1294.900	-289.551	1282.600	1226.329	-293.797	1388.726	627.477	-246.166	1139.655	551.923	-529.472	1326.089	648.356	-171.083	1086.703	590.674	-461.554	1347.294	563.170	-176.623	1093.333	504.372	-462.434	1297.109	135.603	-122.957	975.863	174.664	-399.015	1295.683	146.995	-164.875	945.522	205.523	-399.451	1408.660	38.936	-207.439	838.026	54.718	-381.468
	65	0.66667	1160.858	800.837	-272.549	1162.916	787.232	-198.062	1133.010	784.535	-347.196	1308.315	436.405	-213.619	1102.192	401.701	-400.579	1306.641	65.938	-234.697	839.050	163.694	-377.787	1235.218	861.939	-288.401	1254.407	863.812	-173.212	1216.029	860.067	-403.589	1048.823	917.978	-221.645	1035.329	911.856	-274.774	1318.985	438.300	-156.640	1106.982	409.305	-457.879	1296.892	439.112	-259.086	1141.119	398.852	-343.639	1297.251	63.772	-195.875	822.968	178.256	-411.392	1316.483	73.993	-268.142	851.325	165.691	-354.385	1129.483	1360.263	-273.892	1260.001	1302.561	-236.769	1249.599	1297.388	-341.885	1251.008	1296.467	-288.365	1292.714	1228.144	-292.855	1398.485	626.298	-241.604	1154.306	553.462	-529.458	1334.527	647.671	-167.425	1099.943	591.296	-460.757	1354.903	562.088	-172.323	1108.856	504.993	-462.274	1298.307	135.245	-122.282	991.787	176.820	-399.816	1297.165	146.948	-164.251	961.917	207.980	-400.305	1408.656	38.710	-206.992	847.364	57.770	-381.851
	66	0.67500	1170.310	801.922	-271.604	1172.800	788.781	-196.938	1143.550	786.071	-346.202	1314.129	436.625	-212.282	1121.180	402.429	-400.718	1306.708	65.784	-234.578	855.276	168.168	-378.502	1245.424	863.569	-286.951	1264.111	865.447	-171.653	1226.737	861.691	-402.249	1058.599	919.496	-221.454	1045.222	913.237	-274.602	1323.810	438.019	-155.113	1125.560	410.315	-458.012	1303.060	439.304	-257.766	1159.705	400.206	-343.130	1297.283	63.639	-195.764	839.639	182.710	-412.325	1316.905	74.505	-267.783	867.178	169.524	-355.205	1140.049	1361.939	-272.482	1269.936	1303.850	-235.462	1259.091	1298.749	-341.089	1260.988	1298.132	-287.240	1302.066	1229.288	-291.965	1407.620	624.816	-237.479	1169.172	555.023	-529.063	1342.486	646.889	-164.582	1114.069	592.258	-459.460	1361.326	560.868	-169.248	1124.693	505.883	-461.278	1299.421	134.995	-121.647	1008.334	179.073	-399.423	1298.577	146.783	-163.031	978.849	210.616	-400.197	1408.545	38.539	-206.618	858.432	61.023	-382.406
	67	0.68333	1180.151	803.529	-270.904	1182.533	790.359	-195.970	1153.912	787.729	-345.358	1319.376	436.820	-211.235	1140.177	403.401	-400.538	1306.766	65.624	-234.498	871.861	172.504	-378.557	1255.514	865.221	-285.634	1273.731	867.038	-170.155	1237.296	863.403	-401.113	1068.274	921.135	-221.258	1055.106	914.777	-274.424	1328.204	437.762	-153.918	1144.284	411.480	-457.825	1306.463	440.515	-257.947	1177.616	402.522	-340.856	1297.322	63.512	-195.686	856.749	186.814	-412.716	1316.327	74.807	-267.814	883.851	173.324	-355.090	1149.756	1364.124	-270.898	1279.884	1305.253	-234.188	1268.728	1300.321	-340.233	1270.828	1299.885	-286.183	1311.547	1230.623	-291.083	1416.084	623.114	-233.961	1184.339	556.633	-528.341	1350.106	646.282	-162.164	1128.934	592.981	-458.436	1366.469	559.312	-167.148	1140.694	506.896	-459.647	1300.456	134.826	-121.090	1025.417	181.399	-397.952	1299.338	146.272	-162.238	996.412	213.033	-399.274	1408.363	38.398	-206.321	871.399	64.311	-383.118
	68	0.69167	1190.461	805.792	-270.386	1192.146	791.967	-195.114	1164.125	789.499	-344.618	1324.060	436.975	-210.488	1159.058	404.606	-400.069	1306.841	65.480	-234.444	888.794	176.596	-377.976	1265.510	866.897	-284.406	1283.291	868.593	-168.673	1247.729	865.201	-400.139	1077.863	922.882	-221.046	1064.998	916.458	-274.248	1332.225	437.522	-153.068	1163.068	412.805	-457.346	1312.174	440.627	-257.249	1195.836	405.699	-337.429	1297.367	63.417	-195.637	874.245	190.492	-412.548	1315.717	74.607	-267.999	901.632	177.076	-354.947	1158.879	1366.286	-269.297	1289.626	1307.002	-233.210	1278.419	1302.522	-338.976	1280.538	1301.718	-285.207	1321.282	1232.626	-290.297	1423.861	621.270	-231.193	1199.849	558.319	-527.361	1356.669	645.589	-159.968	1143.893	593.590	-457.601	1372.120	558.285	-165.042	1157.080	507.847	-457.627	1301.358	134.715	-120.644	1042.967	183.770	-395.557	1300.099	145.694	-162.125	1014.436	215.716	-397.840	1408.154	38.280	-206.105	886.379	67.467	-383.919
	69	0.70000	1201.054	808.275	-269.248	1201.649	793.599	-194.332	1174.220	791.372	-343.950	1328.179	437.081	-210.017	1177.731	406.020	-399.327	1306.945	65.378	-234.400	906.095	180.302	-376.829	1275.428	868.599	-283.223	1292.788	870.115	-167.172	1258.069	867.083	-399.273	1087.379	924.717	-220.814	1074.885	918.268	-274.089	1335.907	437.294	-152.534	1181.831	414.286	-456.589	1319.375	439.460	-255.917	1215.585	408.755	-335.131	1297.395	63.379	-195.608	892.118	193.631	-411.858	1315.084	74.488	-268.178	920.020	180.154	-354.530	1167.998	1368.235	-268.128	1299.363	1308.985	-232.280	1287.990	1304.737	-337.793	1290.140	1303.639	-284.308	1331.094	1234.822	-289.482	1430.972	619.349	-229.263	1215.699	560.111	-526.196	1362.326	644.478	-158.613	1159.386	594.770	-456.747	1377.878	557.716	-163.225	1174.450	508.772	-456.080	1302.044	134.650	-120.325	1060.935	186.154	-392.398	1300.665	145.471	-162.152	1032.186	218.351	-395.623	1407.966	38.188	-205.971	903.404	70.337	-384.696
	70	0.70833	1210.991	810.253	-267.801	1211.041	795.248	-193.609	1184.230	793.339	-343.344	1331.745	437.139	-209.771	1196.118	407.608	-398.327	1307.110	65.321	-234.351	923.807	183.458	-375.215	1285.280	870.326	-282.050	1302.201	871.602	-165.641	1268.360	869.049	-398.458	1096.839	926.616	-220.565	1084.780	920.188	-273.945	1339.281	437.084	-152.263	1200.500	415.902	-455.563	1323.191	439.339	-255.124	1235.496	410.775	-334.783	1297.404	63.402	-195.594	910.392	196.095	-410.716	1314.681	74.541	-268.285	938.382	182.833	-353.078	1177.524	1370.278	-267.073	1309.032	1310.969	-231.516	1297.596	1306.869	-337.174	1299.652	1305.652	-283.474	1340.759	1236.902	-288.916	1437.473	617.405	-228.195	1231.868	562.029	-524.912	1368.653	643.774	-157.928	1175.255	596.321	-455.554	1382.941	556.978	-162.327	1192.121	510.177	-455.249	1302.439	134.624	-120.123	1079.286	188.513	-388.635	1300.934	145.460	-162.181	1050.081	220.768	-392.887	1407.833	38.126	-205.903	922.406	72.799	-385.317
